<svg width="15" height="15" viewBox="0 0 15 15" fill="none" xmlns="http://www.w3.org/2000/svg">
<g clip-path="url(#clip0_631_379)">
<path d="M7.5 14.0625C6.20206 14.0625 4.93327 13.6776 3.85407 12.9565C2.77488 12.2354 1.93374 11.2105 1.43704 10.0114C0.940343 8.81222 0.810384 7.49272 1.0636 6.21972C1.31682 4.94672 1.94183 3.7774 2.85961 2.85961C3.7774 1.94183 4.94672 1.31682 6.21972 1.0636C7.49272 0.810384 8.81222 0.940343 10.0114 1.43704C11.2105 1.93374 12.2354 2.77488 12.9565 3.85407C13.6776 4.93327 14.0625 6.20206 14.0625 7.5C14.0625 9.24049 13.3711 10.9097 12.1404 12.1404C10.9097 13.3711 9.24049 14.0625 7.5 14.0625ZM7.5 1.875C6.38748 1.875 5.29995 2.2049 4.37492 2.82299C3.44989 3.44107 2.72892 4.31957 2.30318 5.34741C1.87744 6.37524 1.76604 7.50624 1.98309 8.59739C2.20013 9.68853 2.73586 10.6908 3.52253 11.4775C4.3092 12.2641 5.31148 12.7999 6.40262 13.0169C7.49376 13.234 8.62476 13.1226 9.6526 12.6968C10.6804 12.2711 11.5589 11.5501 12.177 10.6251C12.7951 9.70006 13.125 8.61252 13.125 7.5C13.125 6.00816 12.5324 4.57742 11.4775 3.52253C10.4226 2.46764 8.99185 1.875 7.5 1.875Z" fill="#3375EC"/>
<path d="M9.65156 10.3125L7.03125 7.69219V3.28125H7.96875V7.30312L10.3125 9.65156L9.65156 10.3125Z" fill="#3375EC"/>
</g>
<defs>
<clipPath id="clip0_631_379">
<rect width="15" height="15" fill="white"/>
</clipPath>
</defs>
</svg>
